<?xml version="1.0" encoding="UTF-8"?>
<svg width="512" height="512" viewBox="0 0 512 512" xmlns="http://www.w3.org/2000/svg">
  <g transform="translate(96, 106) scale(5.3)">
    <path
       d="m 10.837,0 c 2.503,0 5.177,0.91 8.021,2.731 2.788,1.763 6.628,4.892 11.52,9.386 8.419,-7.054 12.91,-8.643 17.234,-8.643 2.787,0 5.176,0.768 7.167,2.304 3.668,2.805 4.28,9.21 1.71,13.422 -2.048,3.356 -4.722,6.968 -8.021,10.837 7.509,8.533 11.703,14.673 11.703,18.883 0,3.015 -0.939,5.319 -2.816,6.912 -1.934,1.592 -4.352,2.389 -7.253,2.389 -4.38,0 -11.248,-3.324 -19.725,-10.435 -4.835,4.267 -8.647,7.225 -11.434,8.875 -2.845,1.649 -5.547,2.474 -8.107,2.474 -3.413,0 -6.058,-1.109 -7.936,-3.328 -1.934,-2.276 -2.901,-4.949 -2.901,-8.021 0,-1.991 0.284,-3.726 0.853,-5.205 0.569,-1.479 1.621,-3.129 3.157,-4.949 1.536,-1.878 3.982,-4.466 7.339,-7.766 -3.243,-3.299 -5.632,-5.944 -7.168,-7.935 -1.593,-2.048 -2.674,-3.84 -3.243,-5.376 -0.626,-1.536 -0.938,-3.243 -0.938,-5.12 0,-1.991 0.426,-3.84 1.28,-5.547 0.853,-1.763 2.105,-3.185 3.754,-4.266 C 7.683,0.54 9.618,0 10.837,0 Z"
       fill="#26ddc7"/>
  </g>
</svg>
