<?xml version="1.0" encoding="UTF-8" standalone="no"?>
<svg
   width="512"
   height="512"
   viewBox="0 0 512 512"
   version="1.1"
   id="svg1641"
   xmlns="http://www.w3.org/2000/svg"
   xmlns:svg="http://www.w3.org/2000/svg">
  <defs
     id="defs1645" />
  <!-- Maskable icons need safe zone (center 80%) so we add more padding -->
  <g
     transform="matrix(6.0,0,0,6.0,75,82)"
     id="g1639">
    <path
       d="m 10.837,0 c 2.503,0 5.177,0.91 8.021,2.731 2.788,1.763 6.628,4.892 11.52,9.386 8.419,-7.054 12.91,-8.643 17.234,-8.643 2.787,0 5.176,0.768 7.167,2.304 3.668,2.805 4.28,9.21 1.71,13.422 -2.048,3.356 -4.722,6.968 -8.021,10.837 7.509,8.533 11.703,14.673 11.703,18.883 0,3.015 -0.939,5.319 -2.816,6.912 -1.934,1.592 -4.352,2.389 -7.253,2.389 -4.38,0 -11.248,-3.324 -19.725,-10.435 -4.835,4.267 -8.647,7.225 -11.434,8.875 -2.845,1.649 -5.547,2.474 -8.107,2.474 -3.413,0 -6.058,-1.109 -7.936,-3.328 -1.934,-2.276 -2.901,-4.949 -2.901,-8.021 0,-1.991 0.284,-3.726 0.853,-5.205 0.569,-1.479 1.621,-3.129 3.157,-4.949 1.536,-1.878 3.982,-4.466 7.339,-7.766 C 8.105,26.567 5.716,23.922 4.18,21.931 2.587,19.883 1.506,18.091 0.937,16.555 0.311,15.019 -10e-4,13.312 -10e-4,11.435 -10e-4,9.444 0.425,7.595 1.279,5.888 2.132,4.125 3.384,2.703 5.033,1.622 7.683,0.54 9.618,0 10.837,0 Z"
       fill="#26ddc7"
       id="path1637" />
  </g>
</svg>
