<?xml version="1.0" encoding="UTF-8" standalone="no"?>
<!-- Created with Inkscape (http://www.inkscape.org/) -->

<svg
   width="60.171516mm"
   height="59.134644mm"
   viewBox="0 0 60.171516 59.134644"
   version="1.1"
   id="svg327"
   inkscape:export-filename="bitmap.svg"
   inkscape:export-xdpi="96"
   inkscape:export-ydpi="96"
   xmlns:inkscape="http://www.inkscape.org/namespaces/inkscape"
   xmlns:sodipodi="http://sodipodi.sourceforge.net/DTD/sodipodi-0.dtd"
   xmlns="http://www.w3.org/2000/svg"
   xmlns:svg="http://www.w3.org/2000/svg">
  <sodipodi:namedview
     id="namedview329"
     pagecolor="#ffffff"
     bordercolor="#999999"
     borderopacity="1"
     inkscape:showpageshadow="0"
     inkscape:pageopacity="0"
     inkscape:pagecheckerboard="0"
     inkscape:deskcolor="#d1d1d1"
     inkscape:document-units="mm"
     showgrid="false" />
  <defs
     id="defs324" />
  <g
     inkscape:label="Capa 1"
     inkscape:groupmode="layer"
     id="layer1"
     transform="translate(-61.782884,-45.941161)">
    <path
       d="m 72.619928,45.941158 c 2.502958,0 5.176835,0.910194 8.021105,2.730598 2.78765,1.763501 6.62755,4.892331 11.5197,9.386434 8.419297,-7.054052 12.910337,-8.643007 17.233627,-8.643007 2.78765,0 5.17684,0.767979 7.16783,2.303938 3.66792,2.804769 4.27963,9.210229 1.71,13.421569 -2.04788,3.35638 -4.72175,6.96873 -8.02111,10.83702 7.50914,8.53308 11.70332,14.673 11.70332,18.88279 0,3.01493 -0.93875,5.31892 -2.81596,6.91171 -1.93411,1.59279 -4.35187,2.38919 -7.25302,2.38919 -4.38045,0 -11.2485,-3.3237 -19.724687,-10.43464 -4.83526,4.26641 -8.64685,7.22471 -11.43424,8.87439 -2.84453,1.64968 -5.546721,2.47465 -8.106565,2.47465 -3.413231,0 -6.058509,-1.1094 -7.93578,-3.32793 -1.934184,-2.27568 -2.901262,-4.9493 -2.901262,-8.02111 0,-1.99126 0.284427,-3.72613 0.853307,-5.20541 0.568881,-1.47903 1.621288,-3.1287 3.157247,-4.94904 1.535959,-1.87748 3.982138,-4.46564 7.338457,-7.76526 -3.242548,-3.29935 -5.631815,-5.94471 -7.167801,-7.93575 -1.592844,-2.04796 -2.673694,-3.83993 -3.242574,-5.37588 -0.625767,-1.53596 -0.938636,-3.24258 -0.938636,-5.11988 0,-1.991066 0.42664,-3.839895 1.279948,-5.546511 0.853334,-1.763527 2.10484,-3.185715 3.754596,-4.266578 1.64973,-1.080862 3.583914,-1.621293 5.802498,-1.621293 z"
       fill="#26ddc7"
       id="path2"
       style="stroke-width:0.264583" />
  </g>
</svg>
